<svg width="241" height="241" viewBox="0 0 241 241" fill="none" xmlns="http://www.w3.org/2000/svg">
<path d="M72.8322 91.365C70.0684 92.713 66.6586 91.539 65.3106 88.7752L55.4473 68.5523C54.0993 65.7885 55.2734 62.3787 58.0372 61.0307C60.801 59.6828 64.2107 60.8568 65.5587 63.6206L75.4221 83.8435C76.7701 86.6073 75.596 90.0171 72.8322 91.365Z" fill="#E32652"/>
<path d="M126.76 65.0623C123.996 66.4103 120.586 65.2362 119.238 62.4724L109.375 42.2496C108.027 39.4858 109.201 36.076 111.965 34.728C114.729 33.38 118.138 34.5541 119.486 37.3179L129.35 57.5408C130.698 60.3045 129.524 63.7143 126.76 65.0623Z" fill="#E32652"/>
<path d="M104.97 148.703C104.094 149.131 103.119 149.356 102.146 149.413C101.105 149.504 100.201 149.36 99.2306 149.083C97.3925 148.394 95.8291 147.07 94.9414 145.25C94.514 144.374 94.2888 143.399 94.2313 142.425C94.1738 141.452 94.2841 140.48 94.562 139.51C94.9402 138.575 95.3841 137.774 96.096 137.01C98.0296 134.815 101.326 133.875 104.134 134.842C105.972 135.531 107.569 136.922 108.423 138.674C108.621 139.079 108.783 139.584 108.946 140.088C109.076 140.526 109.138 140.996 109.133 141.499C109.196 141.969 109.191 142.472 109.119 143.008C109.081 143.444 108.908 143.945 108.803 144.414C108.114 146.252 106.723 147.848 104.97 148.703Z" fill="#E32652"/>
<path d="M128.564 137.196C127.688 137.623 126.713 137.849 125.739 137.906C124.699 137.997 123.794 137.853 122.824 137.575C120.986 136.886 119.423 135.563 118.535 133.743C118.108 132.866 117.883 131.891 117.825 130.918C117.768 129.945 117.878 128.973 118.156 128.003C118.534 127.068 118.978 126.267 119.69 125.503C121.59 123.24 124.92 122.368 127.728 123.335C129.566 124.024 131.162 125.415 132.017 127.167C132.214 127.572 132.377 128.077 132.54 128.581C132.67 129.019 132.732 129.489 132.727 129.992C132.79 130.462 132.785 130.965 132.712 131.501C132.674 131.937 132.502 132.438 132.396 132.907C131.707 134.745 130.317 136.341 128.564 137.196Z" fill="#E32652"/>
<path d="M152.158 125.689C151.281 126.117 150.306 126.342 149.333 126.399C148.292 126.49 147.388 126.346 146.418 126.069C145.984 125.863 145.55 125.657 145.116 125.452C144.649 125.179 144.25 124.873 143.918 124.535C143.518 124.229 143.186 123.89 142.921 123.518C142.624 123.079 142.326 122.64 142.129 122.236C141.274 120.483 141.161 118.369 141.749 116.496C142.128 115.561 142.572 114.76 143.283 113.996C145.252 111.701 148.514 110.861 151.322 111.828C153.16 112.517 154.756 113.908 155.611 115.66C155.808 116.065 155.971 116.57 156.134 117.074C156.263 117.512 156.326 117.982 156.321 118.485C156.383 118.955 156.378 119.458 156.306 119.994C156.268 120.43 156.095 120.931 155.99 121.4C155.301 123.238 153.91 124.834 152.158 125.689Z" fill="#E32652"/>
<path d="M116.479 172.299C115.602 172.726 114.627 172.951 113.654 173.009C112.681 173.066 111.709 172.956 110.739 172.678C108.901 171.989 107.305 170.598 106.45 168.846C106.022 167.969 105.797 166.994 105.74 166.021C105.649 164.98 105.76 164.009 106.07 163.106C107.348 159.395 111.932 157.16 115.643 158.437C117.481 159.126 119.077 160.517 119.932 162.27C120.787 164.023 120.9 166.137 120.311 168.01C119.622 169.848 118.231 171.444 116.479 172.299Z" fill="#E32652"/>
<path d="M140.072 160.792C138.32 161.647 136.205 161.76 134.333 161.171C132.495 160.482 130.898 159.091 130.044 157.339C129.616 156.462 129.391 155.487 129.333 154.514C129.243 153.473 129.353 152.502 129.664 151.599C130.942 147.889 135.526 145.653 139.236 146.931C140.139 147.241 140.972 147.753 141.737 148.465C142.468 149.109 143.098 149.887 143.525 150.763C144.38 152.516 144.494 154.63 143.905 156.503C143.216 158.341 141.825 159.937 140.072 160.792Z" fill="#E32652"/>
<path d="M163.664 149.283C161.912 150.137 159.797 150.251 157.925 149.662C157.022 149.351 156.189 148.84 155.424 148.128C154.693 147.484 154.063 146.706 153.635 145.829C153.208 144.953 152.983 143.978 152.925 143.005C152.835 141.964 152.945 140.993 153.256 140.09C154.05 137.783 156.048 135.891 158.435 135.311C158.94 135.148 159.41 135.086 159.913 135.091C160.383 135.028 160.887 135.033 161.423 135.106C161.858 135.143 162.36 135.316 162.828 135.421C164.666 136.11 166.263 137.501 167.117 139.254C167.972 141.007 168.085 143.121 167.497 144.993C166.808 146.831 165.417 148.428 163.664 149.283Z" fill="#E32652"/>
<path d="M170.541 77.8368L55.9444 133.729C53.1806 135.077 49.7709 133.903 48.4229 131.139C47.0749 128.375 48.249 124.966 51.0127 123.618L165.609 67.7253C168.373 66.3773 171.783 67.5514 173.131 70.3152C174.479 73.079 173.304 76.4888 170.541 77.8368Z" fill="#E32652"/>
<path d="M182.652 179.658L128.724 205.961C104.12 217.961 83.0593 210.709 71.0589 186.105L43.1128 128.807C31.1124 104.202 38.364 83.142 62.9685 71.1416L116.896 44.8394C141.501 32.839 162.561 40.0906 174.561 64.6951L202.508 121.993C214.508 146.598 207.256 167.658 182.652 179.658ZM67.9002 81.2531C48.621 90.6561 43.8211 104.596 53.2242 123.875L81.1704 181.173C90.5734 200.452 104.513 205.252 123.792 195.849L177.72 169.547C196.999 160.144 201.799 146.204 192.396 126.925L164.45 69.6268C155.047 50.3476 141.107 45.5477 121.828 54.9508L67.9002 81.2531Z" fill="#E32652"/>
</svg>
