<svg width="30" height="30" viewBox="0 0 30 30" fill="none" xmlns="http://www.w3.org/2000/svg">
<path d="M28.75 28.4375H1.25C0.7375 28.4375 0.3125 28.0125 0.3125 27.5C0.3125 26.9875 0.7375 26.5625 1.25 26.5625H28.75C29.2625 26.5625 29.6875 26.9875 29.6875 27.5C29.6875 28.0125 29.2625 28.4375 28.75 28.4375Z" fill="white"/>
<path d="M24.7256 28.45C24.2131 28.45 23.7881 28.025 23.7881 27.5125V21.9375C23.7881 21.425 24.2131 21 24.7256 21C25.2381 21 25.6631 21.425 25.6631 21.9375V27.5125C25.6631 28.025 25.2506 28.45 24.7256 28.45Z" fill="white"/>
<path d="M24.75 22.8751C22.7125 22.8751 21.0625 21.2251 21.0625 19.1876V16.3501C21.0625 14.3126 22.7125 12.6626 24.75 12.6626C26.7875 12.6626 28.4375 14.3126 28.4375 16.3501V19.1876C28.4375 21.2251 26.7875 22.8751 24.75 22.8751ZM24.75 14.5501C23.75 14.5501 22.9375 15.3626 22.9375 16.3626V19.2001C22.9375 20.2001 23.75 21.0126 24.75 21.0126C25.75 21.0126 26.5625 20.2001 26.5625 19.2001V16.3626C26.5625 15.3626 25.75 14.5501 24.75 14.5501Z" fill="white"/>
<path d="M17.8748 28.4377C17.3623 28.4377 16.9373 28.0127 16.9373 27.5002V7.53772C16.9373 5.55022 16.0998 4.7002 14.1498 4.7002H6.3623C4.3998 4.7002 3.5498 5.55022 3.5498 7.53772V27.5002C3.5498 28.0127 3.1248 28.4377 2.6123 28.4377C2.0998 28.4377 1.6748 28.0127 1.6748 27.5002V7.53772C1.6748 4.50022 3.3373 2.8252 6.3623 2.8252H14.1498C17.1623 2.8252 18.8123 4.50022 18.8123 7.53772V27.5002C18.8123 28.0127 18.3873 28.4377 17.8748 28.4377Z" fill="white"/>
<path d="M13.4375 11.25H7.25C6.7375 11.25 6.3125 10.825 6.3125 10.3125C6.3125 9.8 6.7375 9.375 7.25 9.375H13.4375C13.95 9.375 14.375 9.8 14.375 10.3125C14.375 10.825 13.95 11.25 13.4375 11.25Z" fill="white"/>
<path d="M13.4375 15.9375H7.25C6.7375 15.9375 6.3125 15.5125 6.3125 15C6.3125 14.4875 6.7375 14.0625 7.25 14.0625H13.4375C13.95 14.0625 14.375 14.4875 14.375 15C14.375 15.5125 13.95 15.9375 13.4375 15.9375Z" fill="white"/>
<path d="M10.3125 28.4375C9.8 28.4375 9.375 28.0125 9.375 27.5V22.8125C9.375 22.3 9.8 21.875 10.3125 21.875C10.825 21.875 11.25 22.3 11.25 22.8125V27.5C11.25 28.0125 10.825 28.4375 10.3125 28.4375Z" fill="white"/>
</svg>
