<svg width="214" height="215" viewBox="0 0 214 215" fill="none" xmlns="http://www.w3.org/2000/svg">
<path d="M156.367 162.948L120.415 180.46C87.8791 196.308 67.1976 189.196 51.3286 156.703L33.7937 120.798C17.9247 88.3045 25.0459 67.6501 57.5822 51.8019L93.534 34.2901C126.07 18.4419 146.752 25.5538 162.621 58.0474L180.156 93.952C196.025 126.446 188.904 147.1 156.367 162.948ZM61.9659 60.7781C34.343 74.233 29.309 88.8335 42.7816 116.42L60.3165 152.325C73.7891 179.911 88.4088 184.939 116.032 171.484L151.983 153.972C179.606 140.517 184.64 125.917 171.168 98.3299L153.633 62.4254C140.16 34.8387 125.541 29.8113 97.9177 43.2662L61.9659 60.7781Z" fill="#E32652"/>
<path d="M149.131 140.544C140.023 144.981 129.059 141.21 124.616 132.114L98.3141 78.2575C93.872 69.1617 97.6475 58.2113 106.755 53.775C115.863 49.3387 126.828 53.1092 131.27 62.205L157.572 116.062C162.014 125.158 158.239 136.108 149.131 140.544ZM111.139 62.7512C107.004 64.765 105.286 69.7506 107.302 73.8796L133.604 127.736C135.621 131.865 140.613 133.582 144.747 131.568C148.882 129.554 150.601 124.569 148.584 120.44L122.282 66.583C120.265 62.454 115.273 60.7373 111.139 62.7512Z" fill="#E32652"/>
<path d="M107.19 160.975C98.0825 165.411 87.1178 161.64 82.6756 152.545L72.447 131.6C68.0048 122.504 71.7803 111.554 80.888 107.118C89.9958 102.681 100.961 106.452 105.403 115.548L115.631 136.492C120.074 145.588 116.298 156.538 107.19 160.975ZM85.2718 116.094C81.1373 118.108 79.4184 123.093 81.4349 127.222L91.6636 148.167C93.6801 152.296 98.6722 154.012 102.807 151.999C106.941 149.985 108.66 144.999 106.643 140.87L96.4148 119.926C94.3983 115.797 89.4062 114.08 85.2718 116.094Z" fill="#E32652"/>
</svg>
