<svg width="241" height="241" viewBox="0 0 241 241" fill="none" xmlns="http://www.w3.org/2000/svg">
<path d="M116.916 100.487L89.4132 113.901C74.246 121.298 55.8937 114.979 48.4961 99.8116C41.0986 84.6445 47.4177 66.2921 62.5848 58.8946L90.088 45.4804L116.916 100.487ZM67.4836 68.9385C57.9114 73.6072 53.906 85.2403 58.5747 94.8125C63.2433 104.385 74.8764 108.391 84.4486 103.722L101.84 95.2394L84.8425 60.3885L67.4507 68.8711L67.4836 68.9385Z" fill="#E32652"/>
<path d="M138.813 145.383L111.31 158.797C96.1424 166.195 77.7901 159.875 70.3926 144.708C62.9951 129.541 69.3142 111.189 84.4813 103.791L111.985 90.3769L138.813 145.383ZM89.413 113.902C79.8408 118.571 75.8354 130.204 80.5041 139.776C85.1727 149.349 96.8057 153.354 106.378 148.686L123.77 140.203L106.772 105.352L89.3801 113.835L89.413 113.902Z" fill="#E32652"/>
<path d="M133.239 203.758C118.072 211.156 99.7199 204.836 92.3224 189.669C84.9249 174.502 91.2439 156.15 106.411 148.752L133.914 135.338L147.328 162.841C154.726 178.008 148.406 196.361 133.239 203.758ZM111.31 158.796C101.738 163.465 97.7323 175.098 102.401 184.67C107.07 194.242 118.703 198.248 128.275 193.579C137.847 188.911 141.853 177.277 137.184 167.705L128.702 150.313L111.31 158.796Z" fill="#E32652"/>
<path d="M134.31 92.0052L106.807 105.419L79.9453 50.3457L107.449 36.9315C122.616 29.534 140.968 35.8533 148.365 51.0205C155.83 66.1548 149.477 84.6077 134.31 92.0052ZM111.986 90.3763L129.378 81.8938C138.95 77.2251 142.956 65.5918 138.287 56.0196C133.618 46.4475 121.985 42.4417 112.413 47.1104L95.0213 55.5929L111.986 90.3763Z" fill="#E32652"/>
<path d="M156.206 136.899C141.039 144.297 122.687 137.978 115.289 122.811C107.892 107.643 114.211 89.2909 129.378 81.8934C144.545 74.4959 162.898 80.8152 170.295 95.9824C177.693 111.15 171.374 129.502 156.206 136.899ZM134.31 92.0048C124.738 96.6735 120.732 108.307 125.401 117.879C130.069 127.451 141.703 131.457 151.275 126.788C160.847 122.119 164.852 110.486 160.184 100.914C155.515 91.3419 143.949 87.3033 134.31 92.0048Z" fill="#E32652"/>
</svg>
