<svg width="241" height="241" viewBox="0 0 241 241" fill="none" xmlns="http://www.w3.org/2000/svg">
<path d="M85.4634 191.864C83.5085 190.91 81.7838 189.485 80.4569 187.586L72.8144 177.934C70.9121 175.504 71.3132 171.945 73.7431 170.042C76.1729 168.14 79.665 168.508 81.6348 170.971L89.4135 180.856C89.9578 181.623 90.6317 181.951 91.2351 181.912L159.76 178.284C160.431 178.278 161.064 177.835 161.36 177.229L190.358 117.773C190.654 117.167 190.58 116.463 190.205 115.863L150.875 59.6309C150.468 59.0982 149.861 58.8023 149.258 58.8418L80.7322 62.4694C80.0615 62.476 79.4285 62.9183 79.1326 63.525L50.1343 122.98C49.8384 123.587 49.9125 124.291 50.2873 124.891L62.6372 142.513C64.5429 145.278 67.6765 146.723 71.0617 146.455C74.4468 146.187 77.3124 144.246 78.7919 141.213L104.931 87.7902C106.279 85.0264 109.689 83.8524 112.453 85.2004C115.217 86.5483 116.391 89.9581 115.043 92.7219L88.9033 146.145C85.6813 152.751 79.3174 157.074 71.9437 157.649C64.57 158.225 57.6615 154.939 53.4424 148.876L41.0925 131.254C38.3368 127.323 37.9845 122.228 40.0558 117.981L69.0541 58.5259C71.1254 54.279 75.3572 51.4198 80.1514 51.1713L148.677 47.5437C153.236 47.2639 157.55 49.3682 160.136 53.133L199.466 109.365C202.222 113.296 202.574 118.391 200.503 122.638L171.504 182.093C169.433 186.34 165.202 189.199 160.407 189.448L91.8821 193.075C89.6363 193.232 87.4182 192.817 85.4634 191.864Z" fill="white"/>
<path d="M126.635 163.05L114.838 157.296C105.535 152.759 101.668 141.527 106.205 132.224C107.553 129.46 110.963 128.286 113.726 129.634C116.49 130.982 117.664 134.392 116.316 137.156C114.508 140.863 116.062 145.376 119.77 147.184L131.566 152.938C135.274 154.746 139.787 153.192 141.595 149.485C143.403 145.777 141.849 141.264 138.142 139.456L126.345 133.703C117.043 129.165 113.175 117.933 117.712 108.631C122.249 99.3282 133.482 95.4606 142.784 99.9978L154.581 105.751C163.883 110.289 167.751 121.521 163.214 130.823C161.866 133.587 158.456 134.761 155.692 133.413C152.928 132.065 151.754 128.655 153.102 125.892C154.91 122.184 153.357 117.671 149.649 115.863L137.852 110.109C134.145 108.301 129.632 109.855 127.824 113.562C126.015 117.27 127.569 121.783 131.277 123.591L143.073 129.345C152.376 133.882 156.244 145.114 151.706 154.417C147.169 163.719 135.937 167.587 126.635 163.05Z" fill="white"/>
</svg>
