<svg width="241" height="241" viewBox="0 0 241 241" fill="none" xmlns="http://www.w3.org/2000/svg">
<path d="M98.7598 199.521L66.4706 183.772C55.5503 178.446 47.7124 169.366 44.3808 158.062C41.0164 146.824 42.5759 134.901 48.813 124.509C64.5848 97.9886 99.9354 87.443 127.708 100.989C153.256 113.449 167.394 145.712 159.377 172.927C155.547 185.912 147.058 195.791 135.569 200.868C123.946 205.88 110.894 205.439 98.7598 199.521ZM122.709 111.067C100.127 100.053 71.2982 108.69 58.4296 130.284C53.843 137.977 52.6877 146.676 55.1165 154.87C57.5453 163.064 63.3132 169.715 71.3349 173.628L103.624 189.376C112.724 193.815 122.456 194.222 130.839 190.55C139.222 186.878 145.521 179.437 148.444 169.681C155.068 147.544 143.539 121.227 122.709 111.067Z" fill="white"/>
<path d="M122.351 90.0318C110.285 84.1466 105.243 69.5047 111.128 57.4384C117.013 45.3721 131.655 40.3304 143.722 46.2156C155.788 52.1007 160.83 66.7427 154.944 78.809C149.059 90.8753 134.485 95.9498 122.351 90.0318ZM138.79 56.327C132.319 53.1707 124.396 55.8987 121.24 62.3701C118.083 68.8414 120.811 76.7641 127.283 79.9203C133.754 83.0766 141.677 80.3486 144.833 73.8773C147.989 67.406 145.329 59.5162 138.79 56.327Z" fill="white"/>
<path d="M164.46 120.584C154.213 115.587 149.966 103.252 154.963 93.0054C159.961 82.7591 172.296 78.5117 182.543 83.5092C192.789 88.5066 197.036 100.842 192.039 111.088C187.041 121.334 174.706 125.582 164.46 120.584ZM177.611 93.6206C172.96 91.352 167.343 93.2858 165.075 97.9371C162.806 102.588 164.74 108.204 169.391 110.473C174.043 112.742 179.659 110.808 181.927 106.157C184.196 101.505 182.262 95.8892 177.611 93.6206Z" fill="white"/>
<path d="M176.245 159.71C167.886 155.633 164.399 145.504 168.476 137.146C172.552 128.787 182.681 125.299 191.04 129.376C199.399 133.453 202.887 143.582 198.81 151.941C194.733 160.299 184.604 163.787 176.245 159.71ZM186.109 139.487C183.345 138.139 179.935 139.314 178.587 142.077C177.239 144.841 178.413 148.251 181.177 149.599C183.941 150.947 187.35 149.773 188.698 147.009C190.046 144.245 188.872 140.835 186.109 139.487Z" fill="white"/>
<path d="M68.0134 90.2338C57.7672 85.2364 53.5198 72.9011 58.5172 62.6548C63.5146 52.4086 75.85 48.1612 86.0962 53.1586C96.3425 58.156 100.59 70.4914 95.5924 80.7376C90.595 90.9839 78.2597 95.2313 68.0134 90.2338ZM81.1645 63.27C76.5133 61.0015 70.8972 62.9352 68.6286 67.5865C66.3601 72.2377 68.2938 77.8538 72.9451 80.1224C77.5963 82.391 83.2124 80.4572 85.481 75.8059C87.7496 71.1547 85.8158 65.5386 81.1645 63.27Z" fill="white"/>
</svg>
