<svg width="241" height="241" viewBox="0 0 241 241" fill="none" xmlns="http://www.w3.org/2000/svg">
<path d="M155.726 192.88C148.379 196.464 140.046 197.857 132.245 196.405L92.7053 188.904C82.226 186.922 70.3743 177.85 65.7385 168.345L41.2774 118.192C36.2142 107.811 38.4395 93.0408 46.4385 84.6334L73.9277 55.6217C79.3848 49.8727 89.9007 44.7437 97.7907 43.983L137.576 40.1825C149.126 39.0554 162.135 46.3953 167.198 56.7764L191.627 106.862C196.295 116.434 196.115 131.291 191.225 140.769L172.793 176.545C169.302 183.588 163.074 189.296 155.726 192.88ZM82.1362 63.384L54.647 92.3956C49.9693 97.3473 48.4644 107.093 51.4891 113.295L75.9174 163.38C79.0407 169.784 87.9299 176.547 94.8268 177.856L134.367 185.357C144.946 187.373 158.024 180.995 163.016 171.384L181.448 135.608C184.697 129.267 184.806 118.199 181.683 111.795L157.222 61.6423C154.23 55.5081 145.623 50.6937 138.809 51.2638L99.0231 55.0642C93.6502 55.6821 85.8307 59.4959 82.1362 63.384Z" fill="#E32652"/>
<path d="M118.646 139.783C117.365 140.408 115.854 140.56 114.35 140.042L98.2038 134.483C95.2955 133.481 93.7173 130.246 94.7187 127.337C95.7202 124.429 98.9558 122.851 101.864 123.852L112.695 127.582L125.714 89.7734C126.715 86.8651 129.951 85.2869 132.859 86.2883C135.767 87.2898 137.346 90.5254 136.344 93.4338L121.495 136.557C120.978 138.062 119.927 139.158 118.646 139.783Z" fill="#E32652"/>
</svg>
