<svg width="241" height="241" viewBox="0 0 241 241" fill="none" xmlns="http://www.w3.org/2000/svg">
<path d="M144.543 98.6109L88.3236 126.031C82.5263 128.859 76.9596 128.737 73.0304 125.813C69.0684 122.822 67.477 117.507 68.5789 111.212L77.4882 58.1345C78.9914 48.5562 89.305 43.5259 97.8787 48.2729L145.156 73.8625C150.795 76.8699 154.004 81.3962 153.922 86.3597C153.672 91.3216 150.341 95.7834 144.543 98.6109ZM89.7695 57.6519C89.1628 57.9478 88.7518 58.8159 88.5396 59.9207L79.6633 113.065C79.2028 115.543 79.6616 116.654 79.8276 116.824C79.9608 116.926 81.1674 117.005 83.4594 115.887L139.679 88.4667C141.903 87.3817 142.551 86.3147 142.62 86.1141C142.555 85.9793 141.961 84.9336 139.793 83.7383L92.4822 58.0812C91.2804 57.4991 90.3762 57.356 89.7695 57.6519Z" fill="#E32652"/>
<path d="M180.231 147.462L104.934 184.187C95.2946 188.888 89.1836 186.111 86.42 184.038C83.6564 181.964 79.3459 176.891 81.1945 166.309L89.6793 115.442C89.9654 113.633 91.1543 112.135 92.7721 111.346L130.319 93.0334C131.937 92.2443 133.882 92.2971 135.45 93.1176L180.791 117.816C190.235 122.806 191.512 129.36 191.444 132.814C191.377 136.268 189.87 142.761 180.231 147.462ZM100.265 120.208L92.2442 168.263C91.5338 172.281 92.318 174.402 93.1499 175.081C94.0492 175.727 96.2949 175.884 99.9351 174.108L175.231 137.384C178.872 135.608 180.199 133.709 180.176 132.636C180.22 131.529 178.964 129.639 175.36 127.725L132.522 104.393L100.233 120.141L100.265 120.208Z" fill="#E32652"/>
<path d="M155.688 192.81C152.925 194.158 149.515 192.984 148.167 190.22L135.016 163.256C133.668 160.493 134.842 157.083 137.606 155.735C140.369 154.387 143.779 155.561 145.127 158.325L158.278 185.289C159.626 188.052 158.452 191.462 155.688 192.81Z" fill="#E32652"/>
</svg>
