<svg width="241" height="241" viewBox="0 0 241 241" fill="none" xmlns="http://www.w3.org/2000/svg">
<path d="M117.879 125.4C96.5099 114.978 87.6007 89.1039 98.023 67.7351C108.445 46.3663 134.319 37.4571 155.688 47.8794C177.057 58.3016 185.966 84.1758 175.544 105.545C165.122 126.913 139.248 135.823 117.879 125.4ZM150.757 57.9908C134.983 50.2974 115.828 56.8929 108.134 72.6668C100.441 88.4406 107.037 107.596 122.81 115.289C138.584 122.982 157.739 116.387 165.433 100.613C173.126 84.8391 166.53 65.6842 150.757 57.9908Z" fill="white"/>
<path d="M27.0978 164.569C24.334 163.221 23.16 159.811 24.508 157.047C38.5468 128.263 78.2331 118.581 112.949 135.513C115.713 136.861 116.887 140.27 115.539 143.034C114.191 145.798 110.781 146.972 108.017 145.624C78.8964 131.421 45.9622 138.722 34.6194 161.979C33.2714 164.743 29.8616 165.917 27.0978 164.569Z" fill="white"/>
<path d="M128.767 209.15C114.071 201.982 107.959 184.231 115.126 169.536C122.294 154.841 140.045 148.729 154.74 155.896C169.435 163.063 175.548 180.814 168.38 195.51C161.213 210.205 143.462 216.317 128.767 209.15ZM149.808 166.007C140.708 161.569 129.676 165.367 125.238 174.468C120.799 183.568 124.598 194.6 133.698 199.038C142.799 203.477 153.83 199.678 158.269 190.578C162.707 181.478 158.909 170.446 149.808 166.007Z" fill="white"/>
<path d="M152.407 225.686C151.126 225.061 150.075 223.965 149.557 222.46L146.104 212.432C145.102 209.523 146.681 206.287 149.589 205.286C152.497 204.284 155.733 205.863 156.735 208.771L160.188 218.8C161.189 221.708 159.611 224.944 156.703 225.946C155.198 226.464 153.687 226.31 152.407 225.686Z" fill="white"/>
</svg>
