<svg width="48" height="48" viewBox="0 0 48 48" fill="none" xmlns="http://www.w3.org/2000/svg">
<g clip-path="url(#clip0_2_4335)">
<path d="M16.4005 48.0001C20.8165 48.0001 24.4006 44.4161 24.4006 40.0001V32H16.4005C11.9845 32 8.40039 35.5841 8.40039 40.0001C8.40039 44.4161 11.9845 48.0001 16.4005 48.0001Z" fill="#0ACF83"/>
<path d="M8.40039 24.0001C8.40039 19.5841 11.9845 16 16.4005 16H24.4006V31.9999H16.4005C11.9845 32.0001 8.40039 28.4161 8.40039 24.0001Z" fill="#A259FF"/>
<path d="M8.40039 8.00006C8.40039 3.58406 11.9845 0 16.4005 0H24.4006V15.9999H16.4005C11.9845 15.9999 8.40039 12.4161 8.40039 8.00006Z" fill="#F24E1E"/>
<path d="M24.4004 0H32.4005C36.8165 0 40.4006 3.58406 40.4006 8.00006C40.4006 12.4161 36.8165 15.9999 32.4005 15.9999H24.4004V0Z" fill="#FF7262"/>
<path d="M40.4006 24.0001C40.4006 28.4161 36.8165 32.0001 32.4005 32.0001C27.9845 32.0001 24.4004 28.4161 24.4004 24.0001C24.4004 19.5841 27.9845 16 32.4005 16C36.8165 16 40.4006 19.5841 40.4006 24.0001Z" fill="#1ABCFE"/>
</g>
<defs>
<clipPath id="clip0_2_4335">
<rect width="48" height="48" rx="6" fill="white"/>
</clipPath>
</defs>
</svg>
